<?xml version="1.0" standalone="no"?>
<!DOCTYPE svg PUBLIC "-//W3C//DTD SVG 20010904//EN"
 "http://www.w3.org/TR/2001/REC-SVG-20010904/DTD/svg10.dtd">
<svg version="1.0" xmlns="http://www.w3.org/2000/svg"
 width="152.000000pt" height="152.000000pt" viewBox="0 0 152.000000 152.000000"
 preserveAspectRatio="xMidYMid meet">
<metadata>
Gereon Vey
</metadata>
<g transform="translate(0.000000,152.000000) scale(0.100000,-0.100000)"
fill="#000000" stroke="none">
<path d="M625 1387 c-86 -26 -180 -93 -169 -122 3 -7 1 -22 -4 -32 -22 -40
-36 -263 -21 -331 5 -25 4 -32 -6 -29 -51 20 -44 -167 9 -231 13 -15 26 -44
30 -65 4 -21 21 -72 37 -114 26 -64 29 -81 21 -113 -12 -47 2 -80 55 -136 36
-38 54 -53 159 -132 50 -36 60 -30 13 8 -16 14 -44 37 -61 53 -18 15 -35 27
-39 27 -5 0 -31 30 -59 66 -33 45 -50 77 -50 96 0 16 4 27 9 23 5 -3 9 10 8
30 -1 19 -5 35 -8 35 -10 0 -53 123 -51 148 1 13 -2 21 -6 18 -19 -11 -35 88
-29 183 5 94 -7 100 -18 9 -3 -22 -8 -44 -11 -49 -3 -6 0 -17 7 -25 6 -8 9
-18 5 -21 -16 -16 -26 26 -24 99 1 59 5 75 14 67 8 -7 13 -2 18 16 4 14 11 25
16 25 6 0 10 5 10 11 0 6 -8 8 -17 5 -17 -5 -18 4 -15 116 1 67 7 127 13 134
7 8 6 14 -3 17 -10 4 -10 6 0 6 6 1 12 8 12 17 0 9 5 12 12 8 7 -4 8 -3 4 4
-7 12 20 62 41 75 7 4 13 13 13 19 0 7 -5 6 -15 -2 -11 -9 -15 -9 -15 -1 0 12
41 31 75 35 11 2 30 8 42 14 12 7 31 12 42 12 12 0 21 4 21 10 0 12 62 1 71
-12 3 -6 10 -10 15 -10 11 -1 14 -2 81 -22 60 -18 86 -21 63 -6 -8 5 -10 10
-5 10 6 0 21 -12 34 -25 13 -14 31 -25 40 -25 10 0 26 -9 36 -20 10 -11 21
-18 23 -15 9 9 52 -38 52 -57 0 -10 -3 -18 -7 -18 -5 0 -9 -56 -9 -125 -1 -69
2 -125 6 -125 14 0 18 26 18 116 0 48 4 90 10 92 5 1 7 14 4 28 -3 15 0 29 6
33 33 20 -32 81 -86 81 -11 0 -25 7 -32 15 -8 9 -9 15 -2 15 6 0 13 -4 16 -9
3 -5 20 -11 38 -14 18 -3 43 -8 56 -12 12 -4 22 -3 22 2 0 6 -19 16 -42 22
-24 7 -47 16 -53 21 -18 13 -67 22 -60 10 14 -22 -14 -8 -29 15 -24 37 -68 55
-128 54 -29 -1 -78 1 -108 4 -31 3 -72 1 -95 -6z m269 -32 c22 -5 26 -9 16
-15 -8 -5 -21 -5 -31 1 -10 5 -28 9 -41 9 -17 0 -20 3 -9 9 8 5 19 8 25 6 6
-2 24 -6 40 -10z"/>
<path d="M678 1343 c6 -2 18 -2 25 0 6 3 1 5 -13 5 -14 0 -19 -2 -12 -5z"/>
<path d="M731 1335 c8 -9 35 -18 60 -21 45 -6 52 1 9 9 -14 3 -38 10 -55 17
-27 10 -29 10 -14 -5z"/>
<path d="M638 1333 c7 -3 16 -2 19 1 4 3 -2 6 -13 5 -11 0 -14 -3 -6 -6z"/>
<path d="M706 1315 c25 -19 40 -19 24 0 -7 8 -20 15 -28 15 -13 0 -12 -3 4
-15z"/>
<path d="M840 1310 c0 -5 5 -10 11 -10 5 0 7 5 4 10 -3 6 -8 10 -11 10 -2 0
-4 -4 -4 -10z"/>
<path d="M625 1300 c-20 -9 -20 -9 0 -9 11 0 27 4 35 9 13 9 13 10 0 9 -8 0
-24 -4 -35 -9z"/>
<path d="M685 1300 c3 -5 0 -10 -6 -12 -7 -2 5 -4 25 -5 20 -1 42 -6 49 -12
20 -16 89 -24 117 -12 21 8 17 10 -30 10 -30 1 -79 10 -108 20 -29 11 -50 16
-47 11z"/>
<path d="M534 1259 c-19 -22 -19 -22 4 -8 12 8 22 17 22 21 0 12 -6 9 -26 -13z"/>
<path d="M965 1254 c54 -44 79 -55 69 -29 -3 7 -18 17 -34 20 -16 3 -31 13
-34 21 -3 8 -11 14 -18 14 -7 0 1 -12 17 -26z"/>
<path d="M585 1260 c-8 -13 5 -13 25 0 13 8 13 10 -2 10 -9 0 -20 -4 -23 -10z"/>
<path d="M625 1250 c-3 -5 1 -10 10 -10 9 0 27 -8 41 -17 21 -13 32 -14 54 -6
15 6 34 7 41 2 8 -4 25 -1 39 7 24 14 22 14 -25 9 -80 -9 -105 -7 -121 10 -18
17 -30 19 -39 5z"/>
<path d="M900 1250 c0 -5 7 -10 16 -10 8 0 12 5 9 10 -3 6 -10 10 -16 10 -5 0
-9 -4 -9 -10z"/>
<path d="M555 1240 c-3 -5 -1 -10 4 -10 6 0 11 5 11 10 0 6 -2 10 -4 10 -3 0
-8 -4 -11 -10z"/>
<path d="M503 1213 c-3 -10 -15 -30 -25 -45 -11 -16 -15 -28 -10 -28 4 0 7
-20 6 -45 -2 -25 -1 -45 2 -45 14 0 31 28 25 39 -14 22 5 111 27 129 14 11 14
12 -1 12 -10 0 -20 -8 -24 -17z"/>
<path d="M569 1211 c-13 -11 -22 -22 -19 -24 3 -3 18 6 33 19 33 28 20 33 -14
5z"/>
<path d="M833 1208 c-33 -20 -46 -42 -18 -32 8 4 15 10 15 16 0 5 4 7 9 4 9
-6 38 21 30 28 -2 2 -19 -6 -36 -16z"/>
<path d="M885 1220 c3 -5 10 -10 16 -10 5 0 9 5 9 10 0 6 -7 10 -16 10 -8 0
-12 -4 -9 -10z"/>
<path d="M945 1206 c11 -8 24 -12 28 -9 11 7 -12 23 -32 23 -11 0 -9 -4 4 -14z"/>
<path d="M625 1190 c-3 -6 1 -7 9 -4 18 7 21 14 7 14 -6 0 -13 -4 -16 -10z"/>
<path d="M915 1190 c-3 -5 -1 -10 4 -10 6 0 11 5 11 10 0 6 -2 10 -4 10 -3 0
-8 -4 -11 -10z"/>
<path d="M763 1183 c-15 -3 -23 -12 -23 -25 0 -12 -7 -30 -17 -40 -9 -10 -11
-18 -5 -18 6 0 20 13 31 29 16 22 18 31 9 34 -8 4 -7 6 4 6 9 1 20 6 23 11 3
6 5 9 3 9 -2 -1 -13 -4 -25 -6z"/>
<path d="M990 1180 c0 -7 13 -8 36 -4 29 5 35 4 29 -6 -5 -9 -4 -11 4 -6 6 4
9 12 6 17 -8 13 -75 11 -75 -1z"/>
<path d="M545 1160 c-3 -5 -1 -10 4 -10 6 0 11 5 11 10 0 6 -2 10 -4 10 -3 0
-8 -4 -11 -10z"/>
<path d="M710 1159 c0 -5 5 -7 10 -4 6 3 10 8 10 11 0 2 -4 4 -10 4 -5 0 -10
-5 -10 -11z"/>
<path d="M1021 1120 c11 -22 20 -56 21 -75 1 -20 7 -40 13 -45 23 -19 17 79
-7 122 -30 53 -52 51 -27 -2z"/>
<path d="M1050 1141 c0 -5 5 -13 10 -16 6 -3 10 -2 10 4 0 5 -4 13 -10 16 -5
3 -10 2 -10 -4z"/>
<path d="M677 1078 c2 -5 10 -8 18 -8 8 0 16 3 18 8 3 4 -5 7 -18 7 -13 0 -21
-3 -18 -7z"/>
<path d="M1160 1050 c0 -5 5 -10 11 -10 5 0 7 5 4 10 -3 6 -8 10 -11 10 -2 0
-4 -4 -4 -10z"/>
<path d="M487 993 c-11 -11 -8 -23 6 -23 8 0 14 7 14 15 0 16 -9 19 -20 8z"/>
<path d="M1036 961 c-4 -5 -3 -17 0 -26 6 -14 0 -15 -47 -8 -63 9 -107 9 -167
-2 -29 -5 -60 -2 -104 10 -75 21 -227 23 -239 3 -4 -7 -4 -15 0 -18 4 -3 11
-27 14 -55 10 -76 39 -97 130 -93 69 3 72 4 95 38 13 19 26 48 29 63 5 23 10
27 30 25 21 -2 28 -14 46 -68 l22 -65 56 -13 c69 -17 134 -3 144 30 6 16 9 18
17 7 7 -10 8 -8 5 9 -3 13 1 39 9 57 19 46 18 55 -6 55 -18 0 -24 12 -23 48 1
14 -4 16 -11 3z m-478 -34 c-14 -6 -29 -19 -32 -30 -4 -17 -3 -18 13 -3 24 22
102 31 131 16 20 -11 22 -10 17 4 -7 19 -6 19 27 6 29 -11 34 -41 11 -60 -9
-7 -14 -19 -11 -26 9 -24 -38 -54 -86 -54 -73 0 -106 16 -118 58 -20 75 -8
103 45 101 l30 -1 -27 -11z m336 -16 c17 -7 26 -7 30 2 3 8 8 6 16 -5 6 -10
20 -18 31 -18 11 0 24 -11 31 -25 6 -14 15 -25 19 -25 11 0 0 31 -19 53 -20
23 -14 26 27 15 31 -8 33 -12 27 -40 -3 -17 -6 -39 -6 -49 0 -39 -35 -59 -103
-59 -75 0 -89 11 -112 86 -18 60 -18 57 1 50 8 -3 13 -2 9 3 -3 5 1 12 7 14 7
3 14 6 15 6 1 1 13 -3 27 -8z"/>
<path d="M594 879 c-35 -10 -77 -49 -52 -49 8 0 24 9 36 20 12 12 23 16 27 10
7 -12 71 -12 100 -1 19 8 19 8 -2 19 -25 14 -65 14 -109 1z m81 -9 c3 -5 -1
-10 -9 -10 -9 0 -16 5 -16 10 0 6 4 10 9 10 6 0 13 -4 16 -10z"/>
<path d="M847 863 c10 -27 23 -33 72 -33 27 0 52 -6 63 -17 31 -28 30 -8 -1
26 -32 34 -91 45 -91 16 0 -8 -4 -15 -10 -15 -5 0 -10 9 -10 20 0 11 -7 20
-15 20 -9 0 -12 -6 -8 -17z"/>
<path d="M1079 833 c-12 -15 -12 -16 3 -10 14 5 17 2 14 -16 -3 -12 -5 -41 -5
-65 -1 -35 -5 -44 -23 -52 -13 -5 -17 -9 -10 -9 18 -1 15 -18 -13 -59 -14 -20
-25 -43 -25 -50 0 -8 -14 -46 -31 -85 -27 -62 -30 -75 -20 -102 17 -48 -1 -90
-88 -205 -83 -110 -88 -130 -31 -126 29 2 70 35 70 56 0 16 -18 12 -28 -6 -11
-19 -72 -48 -72 -34 0 5 4 12 10 15 15 9 125 156 143 190 20 41 28 96 15 112
-8 10 -2 35 22 95 18 46 36 90 41 98 38 64 51 100 65 166 12 59 13 78 4 89
-16 19 -24 19 -41 -2z"/>
<path d="M1056 755 c-3 -8 -1 -15 4 -15 6 0 10 7 10 15 0 8 -2 15 -4 15 -2 0
-6 -7 -10 -15z"/>
<path d="M717 745 c-8 -8 -17 -12 -19 -9 -3 2 -11 -10 -18 -27 -12 -28 -11
-33 4 -44 9 -7 35 -13 57 -13 22 -1 53 -4 69 -7 16 -3 31 -2 35 4 3 6 0 11 -7
12 -116 7 -140 9 -148 14 -11 7 0 45 14 45 6 0 17 9 24 20 14 23 9 26 -11 5z"/>
<path d="M830 743 c0 -4 5 -15 10 -23 8 -13 10 -13 10 2 0 9 -4 20 -10 23 -5
3 -10 3 -10 -2z"/>
<path d="M590 595 c-7 -9 -11 -17 -9 -20 3 -2 10 5 17 15 14 24 10 26 -8 5z"/>
<path d="M918 598 c7 -7 12 -20 12 -30 0 -10 5 -18 10 -18 6 0 10 5 10 11 0
18 -20 49 -32 49 -9 0 -9 -3 0 -12z"/>
<path d="M765 590 c-3 -5 -1 -10 4 -10 6 0 11 5 11 10 0 6 -2 10 -4 10 -3 0
-8 -4 -11 -10z"/>
<path d="M608 562 c-21 -4 -23 -17 -6 -28 7 -4 8 -3 4 4 -10 16 5 15 29 -1 38
-25 102 -39 146 -33 24 3 54 8 66 9 13 2 31 11 42 21 15 13 20 14 24 4 4 -8 6
-7 6 5 1 19 -24 23 -34 6 -7 -10 -21 -9 -160 5 -16 2 -36 -1 -42 -6 -9 -7 -20
-6 -35 4 -13 8 -31 12 -40 10z m197 -38 c0 -13 -93 -10 -107 4 -9 9 2 11 48 8
32 -2 59 -7 59 -12z"/>
<path d="M905 509 c-4 -6 -5 -12 -2 -15 2 -3 7 2 10 11 7 17 1 20 -8 4z"/>
<path d="M698 483 c7 -3 16 -2 19 1 4 3 -2 6 -13 5 -11 0 -14 -3 -6 -6z"/>
<path d="M733 423 c9 -2 25 -2 35 0 9 3 1 5 -18 5 -19 0 -27 -2 -17 -5z"/>
<path d="M685 350 c-3 -6 1 -7 9 -4 18 7 21 14 7 14 -6 0 -13 -4 -16 -10z"/>
<path d="M1020 340 c6 -11 19 -20 29 -20 24 0 43 -23 35 -44 -3 -9 -9 -16 -13
-16 -5 0 -14 -18 -21 -40 -7 -22 -29 -57 -47 -78 -33 -36 -34 -36 -29 -10 4
17 0 32 -10 42 -14 15 -17 14 -35 -8 -10 -13 -19 -28 -19 -33 0 -4 9 3 20 17
l20 25 0 -37 c0 -20 -5 -38 -12 -40 -7 -3 2 -5 19 -5 42 0 66 26 112 122 l36
76 30 -23 c16 -13 39 -24 50 -25 33 -2 98 -21 104 -30 3 -4 11 -9 16 -10 17
-2 68 -12 100 -18 17 -3 47 -12 68 -20 45 -18 47 -18 47 -5 0 15 -73 44 -160
64 -96 21 -203 62 -255 97 -22 15 -53 30 -68 33 -26 6 -27 5 -17 -14z"/>
<path d="M610 342 c0 -6 20 -23 44 -37 37 -22 55 -26 110 -24 49 2 70 7 82 21
21 22 15 23 -22 3 -56 -29 -141 -16 -191 29 -13 11 -23 14 -23 8z"/>
<path d="M465 290 c-16 -11 -43 -24 -60 -29 -16 -5 -55 -19 -85 -31 -30 -12
-86 -31 -123 -41 -38 -11 -78 -26 -90 -33 -12 -8 -39 -19 -59 -26 -41 -13 -53
-24 -42 -41 4 -8 9 -7 14 2 5 7 17 14 27 15 37 5 67 14 72 22 11 17 50 32 80
32 16 0 31 5 33 11 2 6 20 11 40 12 21 0 39 6 42 13 3 7 20 15 38 19 18 4 49
16 68 26 43 24 62 24 59 2 -4 -41 3 -62 36 -113 41 -64 60 -75 140 -84 33 -3
74 -8 90 -11 30 -6 30 -6 8 10 -12 9 -53 18 -90 22 -81 7 -102 22 -145 107
-24 47 -29 67 -24 98 3 21 5 38 4 38 -2 0 -16 -9 -33 -20z"/>
<path d="M567 163 c-13 -12 -7 -33 9 -33 8 0 12 5 8 11 -3 6 0 15 7 20 11 7
11 9 -2 9 -9 0 -19 -3 -22 -7z"/>
<path d="M621 115 c4 -3 16 -7 28 -10 11 -2 27 -7 34 -11 9 -5 9 -4 1 5 -6 6
-24 14 -40 17 -16 3 -26 3 -23 -1z"/>
<path d="M1130 100 c-60 -25 -39 -25 25 0 28 10 43 19 35 19 -8 0 -35 -9 -60
-19z"/>
<path d="M31 70 c0 -8 4 -22 9 -30 12 -18 12 -2 0 25 -6 13 -9 15 -9 5z"/>
<path d="M1000 54 c-19 -9 -46 -20 -59 -25 -13 -5 -22 -12 -19 -14 3 -3 36 8
74 24 38 17 62 30 54 30 -8 0 -31 -7 -50 -15z"/>
</g>
</svg>
